<mxfile host="app.diagrams.net" modified="2020-12-28T14:34:54.594Z" agent="5.0 (Macintosh; Intel Mac OS X 11_0_1) AppleWebKit/537.36 (KHTML, like Gecko) Chrome/87.0.4280.88 Safari/537.36" etag="Cx6uWkNIGP89dqGXbR7K" version="14.1.3" type="github">
  <diagram id="plU5Pu5VCVZ9Cn8LIHRn" name="Page-1">
    <mxGraphModel dx="773" dy="1585" grid="1" gridSize="10" guides="1" tooltips="1" connect="1" arrows="1" fold="1" page="1" pageScale="1" pageWidth="827" pageHeight="1169" math="0" shadow="0">
      <root>
        <mxCell id="0" />
        <mxCell id="1" parent="0" />
        <mxCell id="0NxxSWEndQ65j-ONxCyi-1" value="" style="rounded=1;whiteSpace=wrap;html=1;" vertex="1" parent="1">
          <mxGeometry x="340" y="-190" width="120" height="60" as="geometry" />
        </mxCell>
        <mxCell id="0NxxSWEndQ65j-ONxCyi-4" value="next" style="edgeStyle=orthogonalEdgeStyle;rounded=0;orthogonalLoop=1;jettySize=auto;html=1;" edge="1" parent="1" source="0NxxSWEndQ65j-ONxCyi-2" target="0NxxSWEndQ65j-ONxCyi-3">
          <mxGeometry relative="1" as="geometry" />
        </mxCell>
        <mxCell id="0NxxSWEndQ65j-ONxCyi-13" value="" style="edgeStyle=orthogonalEdgeStyle;rounded=0;orthogonalLoop=1;jettySize=auto;html=1;" edge="1" parent="1" source="0NxxSWEndQ65j-ONxCyi-2" target="0NxxSWEndQ65j-ONxCyi-5">
          <mxGeometry relative="1" as="geometry" />
        </mxCell>
        <mxCell id="0NxxSWEndQ65j-ONxCyi-2" value="1" style="rounded=1;whiteSpace=wrap;html=1;" vertex="1" parent="1">
          <mxGeometry x="340" y="-190" width="120" height="60" as="geometry" />
        </mxCell>
        <mxCell id="0NxxSWEndQ65j-ONxCyi-10" value="next" style="edgeStyle=orthogonalEdgeStyle;rounded=0;orthogonalLoop=1;jettySize=auto;html=1;" edge="1" parent="1" source="0NxxSWEndQ65j-ONxCyi-3" target="0NxxSWEndQ65j-ONxCyi-9">
          <mxGeometry relative="1" as="geometry" />
        </mxCell>
        <mxCell id="0NxxSWEndQ65j-ONxCyi-3" value="2" style="rounded=1;whiteSpace=wrap;html=1;" vertex="1" parent="1">
          <mxGeometry x="540" y="-190" width="120" height="60" as="geometry" />
        </mxCell>
        <mxCell id="0NxxSWEndQ65j-ONxCyi-8" value="" style="edgeStyle=orthogonalEdgeStyle;rounded=0;orthogonalLoop=1;jettySize=auto;html=1;" edge="1" parent="1" source="0NxxSWEndQ65j-ONxCyi-5" target="0NxxSWEndQ65j-ONxCyi-7">
          <mxGeometry relative="1" as="geometry" />
        </mxCell>
        <mxCell id="0NxxSWEndQ65j-ONxCyi-5" value="*head" style="rounded=1;whiteSpace=wrap;html=1;" vertex="1" parent="1">
          <mxGeometry x="340" y="-50" width="120" height="60" as="geometry" />
        </mxCell>
        <mxCell id="0NxxSWEndQ65j-ONxCyi-7" value="head" style="rounded=1;whiteSpace=wrap;html=1;" vertex="1" parent="1">
          <mxGeometry x="340" y="90" width="120" height="60" as="geometry" />
        </mxCell>
        <mxCell id="0NxxSWEndQ65j-ONxCyi-9" value="2" style="rounded=1;whiteSpace=wrap;html=1;" vertex="1" parent="1">
          <mxGeometry x="740" y="-190" width="120" height="60" as="geometry" />
        </mxCell>
        <mxCell id="0NxxSWEndQ65j-ONxCyi-19" value="" style="edgeStyle=orthogonalEdgeStyle;rounded=0;orthogonalLoop=1;jettySize=auto;html=1;entryX=0;entryY=0.5;entryDx=0;entryDy=0;" edge="1" parent="1" source="0NxxSWEndQ65j-ONxCyi-11" target="0NxxSWEndQ65j-ONxCyi-2">
          <mxGeometry relative="1" as="geometry">
            <mxPoint x="210" y="-160" as="targetPoint" />
            <Array as="points">
              <mxPoint x="210" y="-160" />
            </Array>
          </mxGeometry>
        </mxCell>
        <mxCell id="0NxxSWEndQ65j-ONxCyi-11" value="*rm" style="rounded=1;whiteSpace=wrap;html=1;" vertex="1" parent="1">
          <mxGeometry x="150" y="-60" width="120" height="60" as="geometry" />
        </mxCell>
        <mxCell id="0NxxSWEndQ65j-ONxCyi-22" value="&amp;amp;" style="edgeStyle=orthogonalEdgeStyle;rounded=0;orthogonalLoop=1;jettySize=auto;html=1;" edge="1" parent="1" source="0NxxSWEndQ65j-ONxCyi-20" target="0NxxSWEndQ65j-ONxCyi-21">
          <mxGeometry relative="1" as="geometry">
            <Array as="points">
              <mxPoint x="650" y="20" />
              <mxPoint x="650" y="20" />
            </Array>
          </mxGeometry>
        </mxCell>
        <mxCell id="0NxxSWEndQ65j-ONxCyi-20" value="" style="rounded=1;whiteSpace=wrap;html=1;" vertex="1" parent="1">
          <mxGeometry x="610" y="-60" width="120" height="60" as="geometry" />
        </mxCell>
        <mxCell id="0NxxSWEndQ65j-ONxCyi-23" value="" style="edgeStyle=orthogonalEdgeStyle;rounded=0;orthogonalLoop=1;jettySize=auto;html=1;" edge="1" parent="1" source="0NxxSWEndQ65j-ONxCyi-21" target="0NxxSWEndQ65j-ONxCyi-20">
          <mxGeometry relative="1" as="geometry">
            <Array as="points">
              <mxPoint x="680" y="40" />
              <mxPoint x="680" y="40" />
            </Array>
          </mxGeometry>
        </mxCell>
        <mxCell id="0NxxSWEndQ65j-ONxCyi-24" value="*" style="edgeLabel;html=1;align=center;verticalAlign=middle;resizable=0;points=[];" vertex="1" connectable="0" parent="0NxxSWEndQ65j-ONxCyi-23">
          <mxGeometry x="-0.075" relative="1" as="geometry">
            <mxPoint as="offset" />
          </mxGeometry>
        </mxCell>
        <mxCell id="0NxxSWEndQ65j-ONxCyi-21" value="ptr" style="rounded=1;whiteSpace=wrap;html=1;" vertex="1" parent="1">
          <mxGeometry x="610" y="80" width="120" height="60" as="geometry" />
        </mxCell>
        <mxCell id="0NxxSWEndQ65j-ONxCyi-25" value="now" style="rounded=1;whiteSpace=wrap;html=1;" vertex="1" parent="1">
          <mxGeometry x="140" y="90" width="120" height="60" as="geometry" />
        </mxCell>
      </root>
    </mxGraphModel>
  </diagram>
</mxfile>
